<svg width="100" height="40" viewBox="0 0 100 40" fill="none" xmlns="http://www.w3.org/2000/svg">
<path d="M27.7548 13.364V26H24.6768V18.098L21.9408 26H19.2768L16.5228 18.08V26H13.4448V13.364H17.2068L20.6448 22.166L24.0108 13.364H27.7548ZM32.2024 15.956L34.6144 22.112L36.8644 15.956H40.2664L34.0024 30.788H30.6184L32.9764 25.622L28.7644 15.956H32.2024ZM47.9701 23.642H52.0741V26H44.8921V13.274H47.9701V23.642ZM58.1858 15.83C59.1818 15.83 60.0698 16.04 60.8498 16.46C61.6418 16.868 62.2598 17.462 62.7038 18.242C63.1598 19.022 63.3878 19.934 63.3878 20.978C63.3878 22.022 63.1598 22.934 62.7038 23.714C62.2598 24.494 61.6418 25.094 60.8498 25.514C60.0698 25.922 59.1818 26.126 58.1858 26.126C57.1898 26.126 56.2958 25.922 55.5038 25.514C54.7118 25.094 54.0878 24.494 53.6318 23.714C53.1878 22.934 52.9658 22.022 52.9658 20.978C52.9658 19.934 53.1878 19.022 53.6318 18.242C54.0878 17.462 54.7118 16.868 55.5038 16.46C56.2958 16.04 57.1898 15.83 58.1858 15.83ZM58.1858 18.494C57.5978 18.494 57.0998 18.71 56.6918 19.142C56.2958 19.562 56.0978 20.174 56.0978 20.978C56.0978 21.782 56.2958 22.394 56.6918 22.814C57.0998 23.234 57.5978 23.444 58.1858 23.444C58.7738 23.444 59.2658 23.234 59.6618 22.814C60.0578 22.394 60.2558 21.782 60.2558 20.978C60.2558 20.174 60.0578 19.562 59.6618 19.142C59.2658 18.71 58.7738 18.494 58.1858 18.494ZM68.7999 15.83C69.5679 15.83 70.2279 16.004 70.7799 16.352C71.3319 16.7 71.7399 17.174 72.0039 17.774V15.956H75.0639V25.946C75.0639 26.882 74.8839 27.722 74.5239 28.466C74.1639 29.222 73.6119 29.822 72.8679 30.266C72.1239 30.71 71.1999 30.932 70.0959 30.932C68.5839 30.932 67.3719 30.572 66.4599 29.852C65.5599 29.144 65.0199 28.178 64.8399 26.954H67.8819C67.9779 27.362 68.1939 27.68 68.5299 27.908C68.8779 28.136 69.3279 28.25 69.8799 28.25C70.5159 28.25 71.0259 28.064 71.4099 27.692C71.8059 27.332 72.0039 26.75 72.0039 25.946V24.182C71.7399 24.782 71.3319 25.256 70.7799 25.604C70.2279 25.952 69.5679 26.126 68.7999 26.126C67.9719 26.126 67.2279 25.922 66.5679 25.514C65.9199 25.094 65.4039 24.494 65.0199 23.714C64.6479 22.934 64.4619 22.022 64.4619 20.978C64.4619 19.922 64.6479 19.01 65.0199 18.242C65.4039 17.462 65.9199 16.868 66.5679 16.46C67.2279 16.04 67.9719 15.83 68.7999 15.83ZM69.7899 18.53C69.1299 18.53 68.5959 18.746 68.1879 19.178C67.7919 19.61 67.5939 20.21 67.5939 20.978C67.5939 21.746 67.7919 22.346 68.1879 22.778C68.5959 23.21 69.1299 23.426 69.7899 23.426C70.4379 23.426 70.9659 23.204 71.3739 22.76C71.7939 22.316 72.0039 21.722 72.0039 20.978C72.0039 20.222 71.7939 19.628 71.3739 19.196C70.9659 18.752 70.4379 18.53 69.7899 18.53ZM81.8811 15.83C82.8771 15.83 83.7651 16.04 84.5451 16.46C85.3371 16.868 85.9551 17.462 86.3991 18.242C86.8551 19.022 87.0831 19.934 87.0831 20.978C87.0831 22.022 86.8551 22.934 86.3991 23.714C85.9551 24.494 85.3371 25.094 84.5451 25.514C83.7651 25.922 82.8771 26.126 81.8811 26.126C80.8851 26.126 79.9911 25.922 79.1991 25.514C78.4071 25.094 77.7831 24.494 77.3271 23.714C76.8831 22.934 76.6611 22.022 76.6611 20.978C76.6611 19.934 76.8831 19.022 77.3271 18.242C77.7831 17.462 78.4071 16.868 79.1991 16.46C79.9911 16.04 80.8851 15.83 81.8811 15.83ZM81.8811 18.494C81.2931 18.494 80.7951 18.71 80.3871 19.142C79.9911 19.562 79.7931 20.174 79.7931 20.978C79.7931 21.782 79.9911 22.394 80.3871 22.814C80.7951 23.234 81.2931 23.444 81.8811 23.444C82.4691 23.444 82.9611 23.234 83.3571 22.814C83.7531 22.394 83.9511 21.782 83.9511 20.978C83.9511 20.174 83.7531 19.562 83.3571 19.142C82.9611 18.71 82.4691 18.494 81.8811 18.494Z" fill="#6070FF"/>
</svg>
